<svg xmlns="http://www.w3.org/2000/svg" height="48" viewBox="0 -960 960 960" width="48"><path d="m802.348-229.435-62.044-60.478q14.739-23.342 24.674-58.698 9.935-35.355 9.935-77.105 0-122.769-85.697-208.787-85.696-86.018-209.082-86.018-40.873 0-76.547 9.434-35.674 9.435-58.847 25.174l-62.479-61.478q43.614-28.435 94.528-42.653Q427.704-804.261 480-804.261q70.68 0 130.622 22.283 59.943 22.282 106.204 62.848l57.131-58.131 55.391 55.391-58.13 57.131Q818.087-615 838.37-553.717q20.282 61.282 20.282 127.909 0 53.249-14 103.376-14 50.128-42.304 92.997ZM518.696-511.957v-118.695H454.74v53.609l63.956 65.086Zm287.478 483-96.956-96.391q-49.264 38.566-105.111 58.196-55.846 19.63-124.377 19.63-78.471 0-147.133-29.866-68.663-29.867-120.21-80.969-51.547-51.102-81.01-119.957-29.464-68.855-29.464-147.497 0-60.363 18.348-117.189 18.348-56.826 59.478-111.391l-133.13-134.13 50.304-49.174 759.565 759-50.304 49.738ZM480.27-131.26q49.165 0 91.603-13.876 42.439-13.875 80.431-40.993L242.087-597.478q-27.435 38.13-42.217 82.283-14.783 44.152-14.783 89.586 0 123.442 85.815 208.895 85.815 85.453 209.368 85.453ZM344.956-859.13v-76.957h270.088v76.957H344.956Zm102.74 466.26Zm94.826-94.26Z"/></svg>